<svg id="svg" xmlns="http://www.w3.org/2000/svg" xmlns:xlink="http://www.w3.org/1999/xlink" width="14" height="14" viewBox="0, 0, 400,400">
  <g id="svgg">
    <path id="path0" d="M91.686 0.847 C 85.292 2.714,77.619 10.540,75.804 17.046 C 74.693 21.028,74.698 378.946,75.809 382.954 C 77.686 389.726,85.406 397.393,92.185 399.218 C 94.180 399.755,130.484 399.954,201.687 399.816 L 308.203 399.609 311.556 397.819 C 315.838 395.532,320.532 390.838,322.819 386.556 L 324.609 383.203 324.609 200.000 L 324.609 16.797 322.819 13.444 C 320.532 9.162,315.838 4.468,311.556 2.181 L 308.203 0.391 201.172 0.260 C 138.117 0.183,93.132 0.424,91.686 0.847 M245.700 26.120 C 250.609 28.171,250.353 34.744,245.296 36.479 C 240.954 37.969,157.886 37.878,154.300 36.380 C 149.647 34.436,149.542 28.147,154.129 26.153 C 157.899 24.514,241.784 24.484,245.700 26.120 M300.000 200.000 L 300.000 337.500 200.000 337.500 L 100.000 337.500 100.000 200.000 L 100.000 62.500 200.000 62.500 L 300.000 62.500 300.000 200.000 M223.438 80.572 C 220.215 80.947,217.030 81.566,216.360 81.947 C 215.690 82.328,213.128 83.058,210.667 83.569 C 208.205 84.080,205.238 84.995,204.072 85.603 C 202.907 86.212,201.338 86.711,200.586 86.714 C 199.834 86.717,199.219 87.070,199.219 87.500 C 199.219 87.930,198.818 88.281,198.328 88.281 C 197.391 88.281,190.515 91.482,189.844 92.231 C 189.629 92.471,188.311 93.129,186.914 93.694 C 185.518 94.259,184.375 95.006,184.375 95.355 C 184.375 95.703,183.611 96.231,182.677 96.527 C 181.743 96.824,180.601 97.381,180.138 97.766 C 177.301 100.128,175.642 101.444,173.816 102.783 C 171.008 104.842,163.273 111.771,161.769 113.575 C 161.097 114.380,159.558 116.138,158.349 117.481 C 157.140 118.823,155.571 120.889,154.860 122.070 C 154.150 123.252,153.294 124.219,152.957 124.219 C 152.620 124.219,152.344 124.729,152.344 125.352 C 152.344 125.975,151.904 126.766,151.367 127.110 C 150.190 127.863,148.709 130.097,147.457 133.008 C 146.948 134.189,146.258 135.156,145.922 135.156 C 145.587 135.156,145.313 135.562,145.313 136.057 C 145.313 136.874,142.297 143.954,140.694 146.901 C 140.336 147.559,139.794 149.229,139.490 150.612 C 139.187 151.994,138.527 153.147,138.024 153.175 C 137.521 153.202,133.857 153.182,129.883 153.129 C 125.860 153.076,122.656 153.357,122.656 153.763 C 122.656 154.164,121.602 154.703,120.313 154.961 L 117.969 155.430 117.969 169.106 L 117.969 182.783 119.922 183.273 C 120.996 183.543,121.875 184.077,121.875 184.460 C 121.875 184.843,124.445 185.156,127.587 185.156 L 133.299 185.156 133.251 192.186 L 133.203 199.217 127.157 199.218 C 117.911 199.219,117.966 199.127,117.981 214.431 C 117.996 230.195,117.271 229.194,129.072 229.744 C 134.352 229.990,138.365 230.254,137.990 230.330 C 137.615 230.406,137.663 230.908,138.095 231.445 C 138.528 231.982,139.143 233.652,139.463 235.156 C 139.782 236.660,140.526 238.584,141.115 239.432 C 141.705 240.279,142.187 241.773,142.187 242.752 C 142.188 243.731,142.483 244.531,142.845 244.531 C 143.207 244.531,143.924 245.938,144.439 247.656 C 144.954 249.375,145.713 250.781,146.125 250.781 C 146.538 250.781,146.875 251.229,146.875 251.776 C 146.875 252.323,148.105 254.638,149.609 256.922 C 151.113 259.206,152.344 261.395,152.344 261.787 C 152.344 262.179,152.667 262.500,153.061 262.500 C 153.456 262.500,154.501 263.669,155.385 265.098 C 157.908 269.181,164.589 276.477,169.459 280.469 C 171.294 281.973,173.204 283.555,173.703 283.984 C 174.201 284.414,176.191 285.820,178.125 287.109 C 180.059 288.398,182.018 289.805,182.479 290.234 C 182.941 290.664,184.698 291.719,186.386 292.578 C 188.073 293.438,189.570 294.404,189.714 294.727 C 189.857 295.049,190.286 295.312,190.667 295.313 C 191.048 295.313,193.281 296.191,195.630 297.266 C 197.978 298.340,200.274 299.219,200.731 299.219 C 201.188 299.219,201.563 299.525,201.563 299.900 C 201.563 300.275,203.046 300.819,204.859 301.109 C 206.673 301.399,208.343 301.926,208.570 302.281 C 209.000 302.950,219.292 305.041,228.125 306.254 C 234.682 307.154,248.977 307.148,255.469 306.243 C 265.533 304.839,275.399 302.933,275.789 302.316 C 276.008 301.970,277.154 301.444,278.335 301.147 C 279.728 300.798,280.652 299.931,280.966 298.681 C 281.522 296.468,279.672 282.813,278.817 282.813 C 278.505 282.813,278.005 280.527,277.706 277.734 C 277.406 274.941,276.851 272.656,276.471 272.656 C 276.092 272.656,275.781 271.602,275.781 270.313 C 275.781 265.396,266.444 262.809,262.002 266.495 C 259.685 268.418,227.951 268.474,225.532 266.559 C 225.025 266.158,223.291 265.591,221.680 265.301 C 220.068 265.011,218.750 264.437,218.750 264.027 C 218.750 263.617,218.072 263.281,217.243 263.281 C 216.415 263.281,215.209 262.754,214.565 262.109 C 213.920 261.465,212.965 260.937,212.441 260.938 C 208.078 260.938,191.641 245.368,187.699 237.500 C 187.160 236.426,186.042 234.492,185.214 233.203 C 184.386 231.914,183.682 230.596,183.651 230.273 C 183.619 229.951,197.602 229.688,214.722 229.688 L 245.851 229.688 247.925 227.905 C 249.225 226.788,250.000 225.328,250.000 223.999 C 250.000 222.831,250.311 221.875,250.690 221.875 C 251.070 221.875,251.625 219.590,251.924 216.797 C 252.223 214.004,252.792 211.719,253.187 211.719 C 254.808 211.719,254.007 201.700,252.344 201.172 C 251.484 200.899,250.781 200.348,250.781 199.947 C 250.781 199.507,235.805 199.219,212.891 199.219 L 175.000 199.219 175.000 192.188 L 175.000 185.156 214.453 185.156 C 237.036 185.156,253.906 184.858,253.906 184.460 C 253.906 184.077,254.785 183.543,255.859 183.273 C 256.934 183.003,257.813 182.262,257.813 181.626 C 257.813 180.989,258.119 180.469,258.493 180.469 C 258.867 180.469,259.421 178.275,259.725 175.594 C 260.028 172.912,260.593 170.337,260.979 169.871 C 264.108 166.102,262.224 154.687,258.473 154.687 C 257.680 154.688,257.031 154.329,257.031 153.891 C 257.031 153.359,244.782 153.165,220.046 153.305 C 185.148 153.504,183.081 153.438,183.418 152.148 C 183.615 151.396,184.087 150.781,184.466 150.781 C 184.846 150.781,185.156 150.279,185.156 149.665 C 185.156 149.051,185.628 148.077,186.205 147.501 C 186.781 146.924,187.689 145.638,188.221 144.644 C 190.828 139.773,202.006 128.906,204.409 128.906 C 205.043 128.906,205.359 128.580,205.113 128.181 C 204.866 127.782,205.445 127.209,206.398 126.906 C 207.351 126.604,208.611 125.875,209.199 125.288 C 209.787 124.700,210.946 124.219,211.775 124.219 C 212.603 124.219,213.281 123.913,213.281 123.539 C 213.281 123.165,214.951 122.408,216.992 121.855 C 219.033 121.303,221.091 120.554,221.564 120.191 C 222.038 119.828,224.587 119.306,227.228 119.029 C 229.870 118.753,232.031 118.226,232.031 117.857 C 232.031 117.489,236.426 117.188,241.797 117.188 C 247.168 117.188,251.563 117.487,251.563 117.853 C 251.563 118.219,254.418 118.739,257.907 119.008 C 261.397 119.277,264.736 119.899,265.329 120.391 C 266.115 121.044,266.406 121.048,266.406 120.408 C 266.406 119.926,266.880 119.531,267.459 119.531 C 269.977 119.531,271.620 116.741,272.635 110.742 C 273.198 107.412,273.920 104.688,274.241 104.688 C 274.561 104.688,275.071 103.018,275.375 100.977 C 275.679 98.936,276.246 96.878,276.636 96.404 C 279.865 92.477,277.930 84.084,273.578 83.144 C 272.427 82.895,270.781 82.382,269.922 82.005 C 265.131 79.901,236.714 79.025,223.438 80.572 M206.861 351.993 C 224.885 359.510,219.509 386.719,200.000 386.719 C 184.208 386.719,176.084 367.807,186.954 356.350 C 191.917 351.119,200.343 349.274,206.861 351.993 " stroke="none" fill="#FFFFFF" fill-rule="evenodd">
    </path>
  </g>
</svg>